<svg width="640" height="640" viewBox="0 0 640 640" fill="none" xmlns="http://www.w3.org/2000/svg">
<g clip-path="url(#clip0_1_157)">
<path opacity="0.88" d="M323.594 617.17C485.732 617.17 617.17 485.732 617.17 323.594C617.17 161.456 485.732 30.0176 323.594 30.0176C161.456 30.0176 30.0176 161.456 30.0176 323.594C30.0176 485.732 161.456 617.17 323.594 617.17Z" stroke="#7778FF" stroke-width="5" stroke-linecap="round" stroke-dasharray="1000 1000"/>
<path opacity="0.95" d="M405.526 591.581C553.531 546.331 636.831 389.667 591.581 241.662C546.331 93.6567 389.667 10.357 241.662 55.6067C93.6568 100.856 10.3571 257.52 55.6068 405.526C100.857 553.531 257.521 636.831 405.526 591.581Z" stroke="#7778FF" stroke-width="5" stroke-linecap="round" stroke-dasharray="1000 1000"/>
<path opacity="0.39" d="M472.835 544.854C595.034 462.43 627.278 296.551 544.854 174.352C462.43 52.1539 296.551 19.9102 174.352 102.334C52.1539 184.758 19.9103 350.637 102.334 472.835C184.758 595.034 350.637 627.277 472.835 544.854Z" stroke="#7778FF" stroke-width="5" stroke-linecap="round" stroke-dasharray="1000 1000"/>
<path opacity="0.8" d="M520.634 483.154C608.756 374.331 591.976 214.676 483.154 126.554C374.332 38.4313 214.676 55.2118 126.554 164.034C38.4314 272.856 55.2118 432.511 164.034 520.634C272.856 608.756 432.511 591.976 520.634 483.154Z" stroke="#7778FF" stroke-width="5" stroke-linecap="round" stroke-dasharray="1000 1000"/>
<path opacity="0.42" d="M547.839 409.674C595.379 285.827 533.52 146.89 409.673 99.3491C285.826 51.8087 146.889 113.667 99.3491 237.514C51.8087 361.361 113.667 500.298 237.514 547.839C361.361 595.379 500.298 533.521 547.839 409.674Z" stroke="#7778FF" stroke-width="5" stroke-linecap="round" stroke-dasharray="1000 1000"/>
<path opacity="0.16" d="M549.896 339.418C558.635 214.435 464.401 106.032 339.418 97.292C214.435 88.5524 106.032 182.786 97.2921 307.769C88.5524 432.752 182.786 541.156 307.769 549.896C432.752 558.635 541.156 464.401 549.896 339.418Z" stroke="#7778FF" stroke-width="5" stroke-linecap="round" stroke-dasharray="1000 1000"/>
<path opacity="0.96" d="M531.632 275.565C505.106 160.668 390.461 89.0302 275.565 115.556C160.669 142.082 89.0303 256.727 115.556 371.623C142.082 486.519 256.727 558.157 371.623 531.632C486.519 505.106 558.157 390.461 531.632 275.565Z" stroke="#7778FF" stroke-width="5" stroke-linecap="round" stroke-dasharray="1000 1000"/>
<path opacity="0.09" d="M496.942 223.511C441.668 127.774 319.249 94.9713 223.511 150.246C127.773 205.52 94.9711 327.939 150.245 423.677C205.52 519.415 327.939 552.217 423.677 496.943C519.414 441.668 552.217 319.249 496.942 223.511Z" stroke="#7778FF" stroke-width="5" stroke-linecap="round" stroke-dasharray="881 1000"/>
<path opacity="0.37" d="M451.006 186.962C375.546 116.594 257.329 120.722 186.961 196.182C116.594 271.642 120.722 389.859 196.182 460.226C271.642 530.594 389.859 526.466 460.226 451.006C530.594 375.546 526.466 257.329 451.006 186.962Z" stroke="#7778FF" stroke-width="5" stroke-linecap="round" stroke-dasharray="764 1000"/>
<path opacity="0.28" d="M399.641 167.674C313.529 125.674 209.674 161.434 167.674 247.547C125.674 333.659 161.434 437.514 247.547 479.514C333.659 521.514 437.514 485.753 479.514 399.641C521.514 313.529 485.753 209.674 399.641 167.674Z" stroke="#7778FF" stroke-width="5" stroke-linecap="round" stroke-dasharray="655 1000"/>
<path opacity="0.59" d="M348.644 165.433C261.294 151.598 179.268 211.194 165.433 298.544C151.598 385.894 211.194 467.92 298.544 481.755C385.893 495.59 467.92 435.994 481.755 348.644C495.59 261.294 435.994 179.268 348.644 165.433Z" stroke="#7778FF" stroke-width="5" stroke-linecap="round" stroke-dasharray="554 1000"/>
<path opacity="0.71" d="M300.631 178.613C220.56 191.295 165.931 266.486 178.613 346.557C191.295 426.627 266.486 481.257 346.556 468.575C426.627 455.893 481.257 380.702 468.575 300.631C455.893 220.56 380.702 165.931 300.631 178.613Z" stroke="#7778FF" stroke-width="5" stroke-linecap="round" stroke-dasharray="462 1000"/>
<path opacity="0.44" d="M265.096 203.655C198.856 235.963 171.348 315.852 203.655 382.092C235.963 448.332 315.852 475.84 382.092 443.532C448.332 411.225 475.84 331.336 443.532 265.096C411.225 198.856 331.336 171.348 265.096 203.655Z" stroke="#7778FF" stroke-width="5" stroke-linecap="round" stroke-dasharray="378 1000"/>
<path opacity="0.85" d="M241.686 235.759C193.176 280.995 190.522 356.992 235.759 405.502C280.995 454.012 356.991 456.665 405.501 411.429C454.011 366.193 456.665 290.196 411.429 241.686C366.193 193.176 290.196 190.523 241.686 235.759Z" stroke="#7778FF" stroke-width="5" stroke-linecap="round" stroke-dasharray="302 933"/>
<path opacity="0.69" d="M231.141 270.216C201.662 321.276 219.156 386.567 270.216 416.046C321.276 445.526 386.567 428.031 416.046 376.971C445.526 325.911 428.031 260.621 376.971 231.141C325.911 201.662 260.621 219.156 231.141 270.216Z" stroke="#7778FF" stroke-width="5" stroke-linecap="round" stroke-dasharray="235 829"/>
<path opacity="0.73" d="M232.577 302.581C220.972 352.848 252.314 403.005 302.581 414.61C352.848 426.215 403.005 394.874 414.61 344.607C426.216 294.34 394.874 244.182 344.607 232.577C294.34 220.972 244.182 252.314 232.577 302.581Z" stroke="#7778FF" stroke-width="5" stroke-linecap="round" stroke-dasharray="176 726"/>
<path opacity="0.34" d="M243.723 329.179C246.807 373.291 285.067 406.55 329.179 403.465C373.291 400.38 406.55 362.12 403.465 318.009C400.38 273.897 362.12 240.638 318.009 243.723C273.897 246.807 240.638 285.067 243.723 329.179Z" stroke="#7778FF" stroke-width="5" stroke-linecap="round" stroke-dasharray="126 622"/>
<path opacity="0.56" d="M261.304 347.505C274.509 381.907 313.103 399.09 347.505 385.884C381.907 372.678 399.09 334.085 385.884 299.683C372.678 265.281 334.085 248.098 299.683 261.304C265.281 274.509 248.098 313.103 261.304 347.505Z" stroke="#7778FF" stroke-width="5" stroke-linecap="round" stroke-dasharray="84 518"/>
<path opacity="0.28" d="M282.112 357.185C300.664 380.095 334.275 383.628 357.185 365.076C380.095 346.524 383.628 312.912 365.076 290.002C346.524 267.092 312.912 263.56 290.002 282.112C267.092 300.664 263.56 334.276 282.112 357.185Z" stroke="#7778FF" stroke-width="5" stroke-linecap="round" stroke-dasharray="50 415"/>
<path opacity="0.22" d="M301.208 356.783C319.538 369.146 344.419 364.31 356.783 345.98C369.147 327.65 364.31 302.768 345.98 290.405C327.65 278.041 302.769 282.878 290.405 301.208C278.041 319.537 282.878 344.419 301.208 356.783Z" stroke="#7778FF" stroke-width="5" stroke-linecap="round" stroke-dasharray="25 311"/>
<path opacity="0.98" d="M315.791 349.116C329.887 353.426 344.807 345.493 349.116 331.397C353.426 317.301 345.493 302.381 331.397 298.071C317.301 293.762 302.381 301.695 298.071 315.791C293.762 329.887 301.695 344.807 315.791 349.116Z" stroke="#7778FF" stroke-width="5" stroke-linecap="round" stroke-dasharray="8 207"/>
<path opacity="0.44" d="M323.594 336.938C330.964 336.938 336.938 330.964 336.938 323.594C336.938 316.224 330.964 310.25 323.594 310.25C316.224 310.25 310.25 316.224 310.25 323.594C310.25 330.964 316.224 336.938 323.594 336.938Z" stroke="#7778FF" stroke-width="5" stroke-linecap="round"/>
</g>
<defs>
<clipPath id="clip0_1_157">
<rect width="647" height="647" fill="white"/>
</clipPath>
</defs>
</svg>
